<svg xmlns="http://www.w3.org/2000/svg" xmlns:xlink="http://www.w3.org/1999/xlink" width="400" zoomAndPan="magnify" viewBox="0 0 300 299.999988" height="400" preserveAspectRatio="xMidYMid meet" version="1.0"><defs><clipPath id="7d5a60a402"><path d="M 33.847656 33.847656 L 266.347656 33.847656 L 266.347656 266.347656 L 33.847656 266.347656 Z M 33.847656 33.847656 " clip-rule="nonzero"/></clipPath><clipPath id="81959f65fa"><path d="M 58.539062 58.539062 L 241.539062 58.539062 L 241.539062 241.539062 L 58.539062 241.539062 Z M 58.539062 58.539062 " clip-rule="nonzero"/></clipPath><clipPath id="5e978c4ae7"><path d="M 83.496094 83.496094 L 216.246094 83.496094 L 216.246094 216.246094 L 83.496094 216.246094 Z M 83.496094 83.496094 " clip-rule="nonzero"/></clipPath><clipPath id="6caaae4d76"><path d="M 108.1875 108.1875 L 192.1875 108.1875 L 192.1875 192.1875 L 108.1875 192.1875 Z M 108.1875 108.1875 " clip-rule="nonzero"/></clipPath></defs><g clip-path="url(#7d5a60a402)"><path fill="#404040" d="M 150.097656 33.847656 C 85.894531 33.847656 33.847656 85.894531 33.847656 150.097656 C 33.847656 214.300781 85.894531 266.347656 150.097656 266.347656 C 214.300781 266.347656 266.347656 214.300781 266.347656 150.097656 C 266.347656 85.894531 214.300781 33.847656 150.097656 33.847656 " fill-opacity="1" fill-rule="nonzero"/></g><g clip-path="url(#81959f65fa)"><path fill="#524532" d="M 150.039062 58.539062 C 99.503906 58.539062 58.539062 99.503906 58.539062 150.039062 C 58.539062 200.574219 99.503906 241.539062 150.039062 241.539062 C 200.574219 241.539062 241.539062 200.574219 241.539062 150.039062 C 241.539062 99.503906 200.574219 58.539062 150.039062 58.539062 " fill-opacity="1" fill-rule="nonzero"/></g><g clip-path="url(#5e978c4ae7)"><path fill="#82673f" d="M 149.871094 83.496094 C 113.210938 83.496094 83.496094 113.210938 83.496094 149.871094 C 83.496094 186.527344 113.210938 216.246094 149.871094 216.246094 C 186.527344 216.246094 216.246094 186.527344 216.246094 149.871094 C 216.246094 113.210938 186.527344 83.496094 149.871094 83.496094 " fill-opacity="1" fill-rule="nonzero"/></g><g clip-path="url(#6caaae4d76)"><path fill="#fbcb82" d="M 150.1875 108.1875 C 126.988281 108.1875 108.1875 126.988281 108.1875 150.1875 C 108.1875 173.382812 126.988281 192.1875 150.1875 192.1875 C 173.382812 192.1875 192.1875 173.382812 192.1875 150.1875 C 192.1875 126.988281 173.382812 108.1875 150.1875 108.1875 " fill-opacity="1" fill-rule="nonzero"/></g></svg>